/* XPM */
static char *skipfwd_xpm[] = {
/* columns rows colors chars-per-pixel */
"28 28 2 1 ",
"  c None",
". c black",
/* pixels */
"                            ",
"                            ",
"                            ",
"                            ",
"                            ",
"                            ",
"                            ",
"                            ",
"       ..          ..       ",
"       ....        ..       ",
"       ......      ..       ",
"       ........    ..       ",
"       ..........  ..       ",
"       ..............       ",
"       ..............       ",
"       ..........  ..       ",
"       ........    ..       ",
"       ......      ..       ",
"       ....        ..       ",
"       ..          ..       ",
"                            ",
"                            ",
"                            ",
"                            ",
"                            ",
"                            ",
"                            ",
"                            "
};
