/* XPM */
static char *mailempty[] = {
/* columns rows colors chars-per-pixel */
"48 48 3 1 ",
"  c None",
". c black",
"X c white",
/* pixels */
"                                                ",
"                                                ",
"                                                ",
"        XXXXXXXXXXXXXXXXXXXXXXXXXXXXXXXXXXXXXXXX",
"       X.......................................X",
"      X........................................X",
"     X......X.X.X.X.X.X.X.X.X.X.X.X.X.X.X.X....X",
"    X......X.X.X.X.X.X.X.X.X.X.X.X.X.X.X.X.....X",
"   X........X.X.X.X.X.X.X.X.X.X.X.X.X.X.X......X",
"  X........X.X.X.X.X.X.X.X.X.X.X.X.X.X.X.......X",
" X..........X.X.X.X.X.X.X.X.X.X.X.X.X.X........X",
"X..............................................X",
"X..............................................X",
"X.........X.X.X.X.X.X.X.X.X.X.X.X.X.X..........X",
"X........X.X.X.X.X.X.X.X.X.X.X.X.X.X........X..X",
"X.......X.X.X.X.X.X.X.X.X.X.X.X.X.X.X......XX..X",
"X......X.X.X.X.X.X.X.X.X.X.X.X.X.X.X......X X..X",
"X.....X.X.X.X.X.X.X.X.X.X.X.X.X.X.X.X....X  X..X",
"X.......................................X   X..X",
"X......................................X    X..X",
"X..XXXXXX..XXXXXXXXXXXXXXXXXXXXXXXXXX..X    X..X",
"X..X    X..X                        X..X    X..X",
"X..X    X..X                        X..X    X..X",
"X..X    X..X                        X..X    X..X",
"X..X    X..XXXXXXXXXXXXXXXXXXXXXXXXXX..XXXXXX..X",
"X..X    X......................................X",
"X..X   X.......................................X",
"X..X  X.....X.X.X.X.X.X.X.X.X.X.X.X.X...X.X....X",
"X..X X.....X.X.X.X.X.X.X.X.X.X.X.X.X...X.X.....X",
"X..XX.......X.X.X.X.X.X.X.X.X.X.X.X.X...X......X",
"X..X.......X.X.X.X.X.X.X.X.X.X.X.X.X...X.......X",
"X...........X.X.X.X.X.X.X.X.X.X.X.X.X..........X",
"X..............................................X",
"X..............................................X",
"X.........X.X.X.X.X.X.X.X.X.X.X.X.X.X..........X",
"X........X.X.X.X.X.X.X.X.X.X.X.X.X.X........X..X",
"X.......X.X.X.X.X.X.X.X.X.X.X.X.X.X.X......XX..X",
"X......X.X.X.X.X.X.X.X.X.X.X.X.X.X.X......X X..X",
"X.....X.X.X.X.X.X.X.X.X.X.X.X.X.X.X.X....X  X..X",
"X.......................................X   X..X",
"X......................................X    X..X",
"X..XXXXXX..XXXXXXXXXXXXXXXXXXXXXXXXXX..X    XXXX",
"X..X    XXXX                        X..X        ",
"X..X                                X..X        ",
"X..X                                X..X        ",
"X..X                                X..X        ",
"X..X                                X..X        ",
"XXXX                                XXXX        "
};
