/* XPM */
static char *mailfull[] = {
/* columns rows colors chars-per-pixel */
"48 48 3 1 ",
"  c None",
". c black",
"X c white",
/* pixels */
"             XXXXXXXXXXXXXXXXXXXXXXXXXXXXXXX    ",
"     XXXXXXXXX.............................X    ",
"     X...............................XXXXX.X    ",
"     X.XXXXXXXXXXXXXXXXXXXXXXXXXXXXX.X...X.XXXXX",
"     X.XXXXXXXXXXXXXXXXXXXXXXXXX...X.X.X.X.....X",
"     X.XX....XXXXXXXXXXXXXXXXXXX.X.X.X.X.X.....X",
"     X.XXXXXXXXXXXXXXXXXXXXXXXXX.X.X.X...X.....X",
"    X..XX.XXXXXXXXXXXXXXXXXXXXXX...X.XXXXX.....X",
"   X...XXXXXXXXXX......XXXXXXXXXXXXX.XXXXX.....X",
"  X....XXXXXXXXXXXXXXXXXXXXXXXXXXXXX.XXXX......X",
" X.....XXXXXXXXXX....XXXXXXXXXXXXXXX.XXX.......X",
"X......XXXXXXXXXXXXXXXXXXXXXXXXXXXXX.XX........X",
"X......XXXXXXXXXX.....XX...XXXXXXXXX.X.........X",
"X......XXXXXXXXXXXXXXXXXXXXXXXXXXXXX...........X",
"X......XXXXXXXXXXXXXXXXXXXXXXXXXXXXX........X..X",
"X......XXXXXXXXXXXXXXXXXXXXXXXXXXXXX.......XX..X",
"X.........................................X X..X",
"X.....X.X.X.X.X.X.X.X.X.X.X.X.X.X.X.X....X  X..X",
"X.......................................X   X..X",
"X......................................X    X..X",
"X..XXXXXX..XXXXXXXXXXXXXXXXXXXXXXXXXX..X    X..X",
"X..X    X..X                        X..X    X..X",
"X..X    X..X                        X..X    X..X",
"X..X    X..X                        X..X    X..X",
"X..X    X..XXXXXXXXXXXXXXXXXXXXXXXXXX..XXXXXX..X",
"X..X   X.......................................X",
"X..X  X........................................X",
"X..X X......X.X.X.X.X.X.X.X.X.X.X.X.X...X.X....X",
"X..XX......X.X.X.X.X.X.X.X.X.X.X.X.X...X.X.....X",
"X..X........X.X.X.X.X.X.X.X.X.X.X.X.X...X......X",
"X..........X.X.X.X.X.X.X.X.X.X.X.X.X...X.......X",
"X...........X.X.X.X.X.X.X.X.X.X.X.X.X..........X",
"X..............................................X",
"X..............................................X",
"X.........X.X.X.X.X.X.X.X.X.X.X.X.X.X..........X",
"X........X.X.X.X.X.X.X.X.X.X.X.X.X.X........X..X",
"X.......X.X.X.X.X.X.X.X.X.X.X.X.X.X.X......XX..X",
"X......X.X.X.X.X.X.X.X.X.X.X.X.X.X.X......X X..X",
"X.....X.X.X.X.X.X.X.X.X.X.X.X.X.X.X.X....X  X..X",
"X.......................................X   X..X",
"X......................................X    X..X",
"X..XXXXXX..XXXXXXXXXXXXXXXXXXXXXXXXXX..X    X..X",
"X..X    XXXXXXXXXXXXXXXXXXXXXXXXX   X..X    XXXX",
"X..X    X...X...XX...XX....X..XXX   X..X        ",
"X..X    X.......X..X..XX..XX..XXX   X..X        ",
"X..X    X..X.X..X.....XX..XX..XXX   X..X        ",
"X..X    X..XXX..X..X..X....X....X   X..X        ",
"XXXX    XXXXXXXXXXXXXXXXXXXXXXXXX   XXXX        "
};
